# xmcd
#
# Track frame offsets:
#	150
#	16323
#	32800
#	47786
#	62318
#	76961
#	90388
#	101681
#	117365
#	131487
#
# Disc length: 1931 seconds
#
# Revision: 0
# Processed by: cddbd v1.4PL0 Copyright (c) Steve Scherf et al.
# Submitted via: dBpowerAMP V4.0
#
DISCID=7407890a
DTITLE=George Strait - Always Never The Same
DYEAR=1900
DGENRE=Country
TTITLE0=Meanwhile
TTITLE1=Write This Down
TTITLE2=That's The Truth
TTITLE3=What Do You Say To That
TTITLE4=Peace Of Mind
TTITLE5=That's Where I Wanna Take Our Love
TTITLE6=Always Never The Same
TTITLE7=One Of You
TTITLE8=I Look At You
TTITLE9=4 Minus 3 Equals Zero
EXTD=
EXTT0=
EXTT1=
EXTT2=
EXTT3=
EXTT4=
EXTT5=
EXTT6=
EXTT7=
EXTT8=
EXTT9=
PLAYORDER=
